<svg xmlns="http://www.w3.org/2000/svg" xmlns:xlink="http://www.w3.org/1999/xlink" width="2000" zoomAndPan="magnify" viewBox="0 0 1500 1499.999933" height="2000" preserveAspectRatio="xMidYMid meet" version="1.0"><defs><g/><clipPath id="a9d43026c2"><rect x="0" width="1438" y="0" height="728"/></clipPath></defs><g transform="matrix(1, 0, 0, 1, 62, 379)"><g clip-path="url(#a9d43026c2)"><g fill="#254135" fill-opacity="1"><g transform="translate(0.27671, 439.393704)"><g><path d="M 271.078125 -286.453125 L 271.078125 -278.359375 C 261.910156 -278.085938 254.960938 -276.738281 250.234375 -274.3125 C 245.515625 -271.882812 242.347656 -267.972656 240.734375 -262.578125 C 239.117188 -257.179688 238.3125 -249.492188 238.3125 -239.515625 L 238.3125 2.015625 C 236.6875 2.015625 235.128906 2.015625 233.640625 2.015625 C 232.160156 2.015625 230.613281 2.015625 229 2.015625 L 59.078125 -260.5625 L 59.078125 -46.9375 C 59.078125 -37.226562 59.953125 -29.609375 61.703125 -24.078125 C 63.453125 -18.546875 66.957031 -14.632812 72.21875 -12.34375 C 77.476562 -10.050781 85.367188 -8.632812 95.890625 -8.09375 L 95.890625 0 C 91.035156 -0.539062 84.695312 -0.878906 76.875 -1.015625 C 69.050781 -1.148438 61.632812 -1.21875 54.625 -1.21875 C 47.875 -1.21875 41.0625 -1.148438 34.1875 -1.015625 C 27.3125 -0.878906 21.582031 -0.539062 17 0 L 17 -8.09375 C 26.164062 -8.632812 33.109375 -10.050781 37.828125 -12.34375 C 42.546875 -14.632812 45.710938 -18.546875 47.328125 -24.078125 C 48.953125 -29.609375 49.765625 -37.226562 49.765625 -46.9375 L 49.765625 -243.5625 C 49.765625 -253.539062 48.953125 -260.890625 47.328125 -265.609375 C 45.710938 -270.335938 42.546875 -273.578125 37.828125 -275.328125 C 33.109375 -277.078125 26.164062 -278.085938 17 -278.359375 L 17 -286.453125 C 21.582031 -286.179688 27.3125 -285.910156 34.1875 -285.640625 C 41.0625 -285.367188 47.875 -285.234375 54.625 -285.234375 C 60.550781 -285.234375 66.210938 -285.367188 71.609375 -285.640625 C 77.003906 -285.910156 81.859375 -286.179688 86.171875 -286.453125 L 229 -66.359375 L 229 -239.515625 C 229 -249.492188 228.117188 -257.179688 226.359375 -262.578125 C 224.609375 -267.972656 221.101562 -271.882812 215.84375 -274.3125 C 210.59375 -276.738281 202.707031 -278.085938 192.1875 -278.359375 L 192.1875 -286.453125 C 197.039062 -286.179688 203.441406 -285.910156 211.390625 -285.640625 C 219.347656 -285.367188 226.703125 -285.234375 233.453125 -285.234375 C 240.460938 -285.234375 247.40625 -285.367188 254.28125 -285.640625 C 261.164062 -285.910156 266.765625 -286.179688 271.078125 -286.453125 Z M 271.078125 -286.453125 "/></g></g></g><g fill="#254135" fill-opacity="1"><g transform="translate(278.622742, 439.393704)"><g><path d="M 110.859375 -214.03125 C 128.117188 -214.03125 143.625 -210.253906 157.375 -202.703125 C 171.132812 -195.148438 182.128906 -183.28125 190.359375 -167.09375 C 198.585938 -150.914062 202.703125 -129.878906 202.703125 -103.984375 C 202.703125 -78.085938 198.585938 -57.113281 190.359375 -41.0625 C 182.128906 -25.019531 171.132812 -13.21875 157.375 -5.65625 C 143.625 1.894531 128.117188 5.671875 110.859375 5.671875 C 93.867188 5.671875 78.425781 1.894531 64.53125 -5.65625 C 50.644531 -13.21875 39.585938 -25.019531 31.359375 -41.0625 C 23.128906 -57.113281 19.015625 -78.085938 19.015625 -103.984375 C 19.015625 -129.878906 23.128906 -150.914062 31.359375 -167.09375 C 39.585938 -183.28125 50.644531 -195.148438 64.53125 -202.703125 C 78.425781 -210.253906 93.867188 -214.03125 110.859375 -214.03125 Z M 110.859375 -205.9375 C 95.484375 -205.9375 82.875 -197.976562 73.03125 -182.0625 C 63.1875 -166.15625 58.265625 -140.128906 58.265625 -103.984375 C 58.265625 -67.835938 63.1875 -41.875 73.03125 -26.09375 C 82.875 -10.3125 95.484375 -2.421875 110.859375 -2.421875 C 126.234375 -2.421875 138.84375 -10.3125 148.6875 -26.09375 C 158.53125 -41.875 163.453125 -67.835938 163.453125 -103.984375 C 163.453125 -140.128906 158.53125 -166.15625 148.6875 -182.0625 C 138.84375 -197.976562 126.234375 -205.9375 110.859375 -205.9375 Z M 110.859375 -205.9375 "/></g></g></g><g fill="#254135" fill-opacity="1"><g transform="translate(500.328871, 439.393704)"><g><path d="M 137.5625 -214.03125 C 144.84375 -214.03125 151.25 -212.546875 156.78125 -209.578125 C 162.3125 -206.609375 166.625 -202.765625 169.71875 -198.046875 C 172.820312 -193.328125 174.375 -188 174.375 -182.0625 C 174.375 -175.320312 172.285156 -169.390625 168.109375 -164.265625 C 163.929688 -159.140625 158.332031 -156.578125 151.3125 -156.578125 C 145.65625 -156.578125 140.664062 -158.394531 136.34375 -162.03125 C 132.03125 -165.675781 129.875 -170.867188 129.875 -177.609375 C 129.875 -182.734375 131.289062 -187.117188 134.125 -190.765625 C 136.957031 -194.410156 140.125 -197.3125 143.625 -199.46875 C 141.738281 -202.164062 138.910156 -203.515625 135.140625 -203.515625 C 126.773438 -203.515625 119.082031 -201.019531 112.0625 -196.03125 C 105.050781 -191.039062 99.117188 -184.632812 94.265625 -176.8125 C 89.410156 -168.988281 85.632812 -160.691406 82.9375 -151.921875 C 80.238281 -143.160156 78.890625 -135.003906 78.890625 -127.453125 L 78.890625 -41.671875 C 78.890625 -28.453125 82.734375 -19.617188 90.421875 -15.171875 C 98.109375 -10.722656 108.5625 -8.5 121.78125 -8.5 L 121.78125 0 C 115.582031 -0.269531 106.816406 -0.609375 95.484375 -1.015625 C 84.148438 -1.421875 72.144531 -1.625 59.46875 -1.625 C 50.300781 -1.625 41.195312 -1.421875 32.15625 -1.015625 C 23.125 -0.609375 16.316406 -0.269531 11.734375 0 L 11.734375 -8.5 C 22.796875 -8.5 30.6875 -10.519531 35.40625 -14.5625 C 40.125 -18.613281 42.484375 -26.300781 42.484375 -37.625 L 42.484375 -164.265625 C 42.484375 -176.398438 40.320312 -185.367188 36 -191.171875 C 31.6875 -196.972656 23.597656 -199.875 11.734375 -199.875 L 11.734375 -208.359375 C 20.367188 -207.554688 28.726562 -207.15625 36.8125 -207.15625 C 44.632812 -207.15625 52.117188 -207.625 59.265625 -208.5625 C 66.421875 -209.507812 72.960938 -210.925781 78.890625 -212.8125 L 78.890625 -162.234375 C 81.859375 -170.054688 86.109375 -177.945312 91.640625 -185.90625 C 97.171875 -193.863281 103.847656 -200.539062 111.671875 -205.9375 C 119.492188 -211.332031 128.125 -214.03125 137.5625 -214.03125 Z M 137.5625 -214.03125 "/></g></g></g><g fill="#254135" fill-opacity="1"><g transform="translate(672.272077, 439.393704)"><g><path d="M 195.828125 -317.203125 L 195.828125 -44.09375 C 195.828125 -31.957031 198.050781 -22.988281 202.5 -17.1875 C 206.945312 -11.394531 214.972656 -8.5 226.578125 -8.5 L 226.578125 0 C 218.210938 -0.8125 209.847656 -1.21875 201.484375 -1.21875 C 193.660156 -1.21875 186.175781 -0.8125 179.03125 0 C 171.882812 0.8125 165.34375 2.296875 159.40625 4.453125 L 159.40625 -268.65625 C 159.40625 -280.789062 157.25 -289.753906 152.9375 -295.546875 C 148.625 -301.347656 140.53125 -304.25 128.65625 -304.25 L 128.65625 -312.75 C 137.289062 -311.9375 145.65625 -311.53125 153.75 -311.53125 C 161.570312 -311.53125 169.054688 -312.003906 176.203125 -312.953125 C 183.347656 -313.898438 189.890625 -315.316406 195.828125 -317.203125 Z M 110.859375 -214.03125 C 122.722656 -214.03125 133.847656 -211.195312 144.234375 -205.53125 C 154.617188 -199.863281 161.566406 -190.15625 165.078125 -176.40625 L 159.8125 -172.359375 C 156.039062 -183.679688 150.175781 -191.90625 142.21875 -197.03125 C 134.257812 -202.15625 124.882812 -204.71875 114.09375 -204.71875 C 98.175781 -204.71875 84.890625 -196.488281 74.234375 -180.03125 C 63.585938 -163.582031 58.398438 -138.234375 58.671875 -103.984375 C 58.671875 -82.128906 60.757812 -63.988281 64.9375 -49.5625 C 69.113281 -35.132812 75.316406 -24.34375 83.546875 -17.1875 C 91.773438 -10.039062 101.820312 -6.46875 113.6875 -6.46875 C 125.019531 -6.46875 135.269531 -11.320312 144.4375 -21.03125 C 153.613281 -30.75 159.144531 -45.046875 161.03125 -63.921875 L 165.890625 -58.265625 C 163.722656 -37.765625 157.175781 -21.984375 146.25 -10.921875 C 135.332031 0.140625 120.566406 5.671875 101.953125 5.671875 C 85.234375 5.671875 70.601562 1.625 58.0625 -6.46875 C 45.519531 -14.5625 35.941406 -26.695312 29.328125 -42.875 C 22.722656 -59.0625 19.421875 -79.429688 19.421875 -103.984375 C 19.421875 -128.523438 23.664062 -148.953125 32.15625 -165.265625 C 40.65625 -181.585938 51.847656 -193.796875 65.734375 -201.890625 C 79.628906 -209.984375 94.671875 -214.03125 110.859375 -214.03125 Z M 110.859375 -214.03125 "/></g></g></g><g fill="#254135" fill-opacity="1"><g transform="translate(907.329181, 439.393704)"><g><path d="M 69.1875 2.828125 C 58.125 2.828125 48.546875 0.738281 40.453125 -3.4375 C 32.367188 -7.613281 26.234375 -13.476562 22.046875 -21.03125 C 17.867188 -28.59375 15.78125 -37.363281 15.78125 -47.34375 C 15.78125 -59.207031 18.546875 -68.914062 24.078125 -76.46875 C 29.609375 -84.019531 36.6875 -90.085938 45.3125 -94.671875 C 53.945312 -99.253906 63.050781 -103.097656 72.625 -106.203125 C 82.195312 -109.304688 91.296875 -112.273438 99.921875 -115.109375 C 108.554688 -117.941406 115.640625 -121.242188 121.171875 -125.015625 C 126.703125 -128.796875 129.46875 -133.785156 129.46875 -139.984375 L 129.46875 -165.078125 C 129.46875 -176.398438 127.78125 -185.03125 124.40625 -190.96875 C 121.039062 -196.90625 116.523438 -200.882812 110.859375 -202.90625 C 105.191406 -204.925781 98.851562 -205.9375 91.84375 -205.9375 C 85.101562 -205.9375 77.890625 -204.992188 70.203125 -203.109375 C 62.515625 -201.222656 56.375 -197.3125 51.78125 -191.375 C 56.90625 -190.289062 61.351562 -187.59375 65.125 -183.28125 C 68.90625 -178.96875 70.796875 -173.4375 70.796875 -166.6875 C 70.796875 -159.945312 68.640625 -154.617188 64.328125 -150.703125 C 60.015625 -146.796875 54.484375 -144.84375 47.734375 -144.84375 C 39.921875 -144.84375 34.191406 -147.335938 30.546875 -152.328125 C 26.898438 -157.316406 25.078125 -162.914062 25.078125 -169.125 C 25.078125 -176.132812 26.832031 -181.796875 30.34375 -186.109375 C 33.851562 -190.429688 38.304688 -194.476562 43.703125 -198.25 C 49.898438 -202.5625 57.921875 -206.269531 67.765625 -209.375 C 77.609375 -212.476562 88.734375 -214.03125 101.140625 -214.03125 C 112.203125 -214.03125 121.644531 -212.75 129.46875 -210.1875 C 137.289062 -207.625 143.765625 -203.914062 148.890625 -199.0625 C 155.898438 -192.582031 160.484375 -184.691406 162.640625 -175.390625 C 164.804688 -166.085938 165.890625 -154.960938 165.890625 -142.015625 L 165.890625 -29.53125 C 165.890625 -22.789062 166.898438 -17.9375 168.921875 -14.96875 C 170.941406 -12 174.109375 -10.515625 178.421875 -10.515625 C 181.390625 -10.515625 184.222656 -11.1875 186.921875 -12.53125 C 189.617188 -13.882812 192.851562 -16.046875 196.625 -19.015625 L 201.078125 -12.140625 C 195.421875 -7.828125 190.03125 -4.253906 184.90625 -1.421875 C 179.78125 1.410156 172.898438 2.828125 164.265625 2.828125 C 156.441406 2.828125 149.96875 1.476562 144.84375 -1.21875 C 139.71875 -3.914062 135.875 -7.890625 133.3125 -13.140625 C 130.75 -18.398438 129.46875 -25.078125 129.46875 -33.171875 C 122.1875 -21.035156 113.488281 -12 103.375 -6.0625 C 93.257812 -0.132812 81.863281 2.828125 69.1875 2.828125 Z M 83.75 -13.359375 C 92.65625 -13.359375 100.953125 -15.914062 108.640625 -21.03125 C 116.328125 -26.15625 123.269531 -33.84375 129.46875 -44.09375 L 129.46875 -123.40625 C 126.226562 -118.8125 121.503906 -114.960938 115.296875 -111.859375 C 109.097656 -108.765625 102.359375 -105.664062 95.078125 -102.5625 C 87.796875 -99.457031 80.847656 -95.816406 74.234375 -91.640625 C 67.628906 -87.460938 62.171875 -82 57.859375 -75.25 C 53.546875 -68.507812 51.390625 -59.742188 51.390625 -48.953125 C 51.390625 -38.160156 54.285156 -29.53125 60.078125 -23.0625 C 65.878906 -16.59375 73.769531 -13.359375 83.75 -13.359375 Z M 83.75 -13.359375 "/></g></g></g><g fill="#254135" fill-opacity="1"><g transform="translate(1108.806623, 439.393704)"><g><path d="M 147.671875 -214.03125 C 157.921875 -214.03125 166.484375 -212.679688 173.359375 -209.984375 C 180.242188 -207.285156 185.976562 -203.507812 190.5625 -198.65625 C 195.6875 -193.257812 199.328125 -186.515625 201.484375 -178.421875 C 203.640625 -170.328125 204.71875 -159.40625 204.71875 -145.65625 L 204.71875 -37.625 C 204.71875 -26.300781 207.078125 -18.613281 211.796875 -14.5625 C 216.523438 -10.519531 224.414062 -8.5 235.46875 -8.5 L 235.46875 0 C 230.882812 -0.269531 223.875 -0.609375 214.4375 -1.015625 C 205 -1.421875 195.828125 -1.625 186.921875 -1.625 C 178.023438 -1.625 169.328125 -1.421875 160.828125 -1.015625 C 152.328125 -0.609375 145.921875 -0.269531 141.609375 0 L 141.609375 -8.5 C 151.316406 -8.5 158.191406 -10.519531 162.234375 -14.5625 C 166.285156 -18.613281 168.3125 -26.300781 168.3125 -37.625 L 168.3125 -154.5625 C 168.3125 -162.914062 167.632812 -170.597656 166.28125 -177.609375 C 164.9375 -184.628906 161.90625 -190.296875 157.1875 -194.609375 C 152.46875 -198.921875 145.25 -201.078125 135.53125 -201.078125 C 124.207031 -201.078125 114.296875 -197.835938 105.796875 -191.359375 C 97.304688 -184.890625 90.695312 -176.054688 85.96875 -164.859375 C 81.25 -153.671875 78.890625 -141.203125 78.890625 -127.453125 L 78.890625 -37.625 C 78.890625 -26.300781 80.910156 -18.613281 84.953125 -14.5625 C 89.003906 -10.519531 95.882812 -8.5 105.59375 -8.5 L 105.59375 0 C 101.28125 -0.269531 94.875 -0.609375 86.375 -1.015625 C 77.882812 -1.421875 69.1875 -1.625 60.28125 -1.625 C 51.382812 -1.625 42.210938 -1.421875 32.765625 -1.015625 C 23.328125 -0.609375 16.316406 -0.269531 11.734375 0 L 11.734375 -8.5 C 22.796875 -8.5 30.6875 -10.519531 35.40625 -14.5625 C 40.125 -18.613281 42.484375 -26.300781 42.484375 -37.625 L 42.484375 -164.265625 C 42.484375 -176.398438 40.320312 -185.367188 36 -191.171875 C 31.6875 -196.972656 23.597656 -199.875 11.734375 -199.875 L 11.734375 -208.359375 C 20.367188 -207.554688 28.726562 -207.15625 36.8125 -207.15625 C 44.632812 -207.15625 52.117188 -207.625 59.265625 -208.5625 C 66.421875 -209.507812 72.960938 -210.925781 78.890625 -212.8125 L 78.890625 -165.078125 C 85.910156 -183.421875 95.691406 -196.164062 108.234375 -203.3125 C 120.773438 -210.457031 133.921875 -214.03125 147.671875 -214.03125 Z M 147.671875 -214.03125 "/></g></g></g><g fill="#254135" fill-opacity="1"><g transform="translate(1350.388891, 439.393704)"><g/></g></g><g fill="#254135" fill-opacity="1"><g transform="translate(0.27671, 668.926693)"><g><path d="M 9.578125 -161.40625 C 12.765625 -161.257812 16.941406 -161.109375 22.109375 -160.953125 C 27.273438 -160.804688 32.367188 -160.734375 37.390625 -160.734375 C 44.535156 -160.734375 51.375 -160.804688 57.90625 -160.953125 C 64.445312 -161.109375 69.082031 -161.1875 71.8125 -161.1875 C 84.125 -161.1875 94.34375 -159.4375 102.46875 -155.9375 C 110.601562 -152.445312 116.6875 -147.695312 120.71875 -141.6875 C 124.75 -135.6875 126.765625 -128.960938 126.765625 -121.515625 C 126.765625 -116.953125 125.847656 -112.085938 124.015625 -106.921875 C 122.191406 -101.753906 119.039062 -96.890625 114.5625 -92.328125 C 110.082031 -87.773438 103.960938 -84.015625 96.203125 -81.046875 C 88.453125 -78.085938 78.648438 -76.609375 66.796875 -76.609375 L 44.90625 -76.609375 L 44.90625 -81.15625 L 64.515625 -81.15625 C 75.304688 -81.15625 83.550781 -82.863281 89.25 -86.28125 C 94.957031 -89.707031 98.832031 -94.269531 100.875 -99.96875 C 102.925781 -105.664062 103.953125 -112.015625 103.953125 -119.015625 C 103.953125 -131.015625 101.101562 -140.320312 95.40625 -146.9375 C 89.707031 -153.550781 79.941406 -156.859375 66.109375 -156.859375 C 59.117188 -156.859375 54.5625 -155.566406 52.4375 -152.984375 C 50.3125 -150.398438 49.25 -145.15625 49.25 -137.25 L 49.25 -24.171875 C 49.25 -18.691406 49.703125 -14.582031 50.609375 -11.84375 C 51.523438 -9.113281 53.3125 -7.289062 55.96875 -6.375 C 58.625 -5.46875 62.539062 -4.863281 67.71875 -4.5625 L 67.71875 0 C 64.21875 -0.300781 59.84375 -0.488281 54.59375 -0.5625 C 49.351562 -0.644531 44.070312 -0.6875 38.75 -0.6875 C 32.820312 -0.6875 27.273438 -0.644531 22.109375 -0.5625 C 16.941406 -0.488281 12.765625 -0.300781 9.578125 0 L 9.578125 -4.5625 C 14.742188 -4.863281 18.65625 -5.46875 21.3125 -6.375 C 23.976562 -7.289062 25.765625 -9.113281 26.671875 -11.84375 C 27.585938 -14.582031 28.046875 -18.691406 28.046875 -24.171875 L 28.046875 -137.25 C 28.046875 -142.875 27.585938 -147.015625 26.671875 -149.671875 C 25.765625 -152.328125 23.976562 -154.148438 21.3125 -155.140625 C 18.65625 -156.128906 14.742188 -156.703125 9.578125 -156.859375 Z M 45.828125 -80.484375 C 54.035156 -80.171875 60.492188 -79.820312 65.203125 -79.4375 C 69.910156 -79.0625 73.742188 -78.722656 76.703125 -78.421875 C 79.671875 -78.117188 82.523438 -77.738281 85.265625 -77.28125 C 95.453125 -75.613281 102.785156 -72.535156 107.265625 -68.046875 C 111.753906 -63.566406 115.0625 -56.613281 117.1875 -47.1875 L 122.890625 -23.9375 C 124.398438 -17.25 125.953125 -12.421875 127.546875 -9.453125 C 129.148438 -6.492188 131.625 -5.09375 134.96875 -5.25 C 137.550781 -5.394531 139.71875 -6.226562 141.46875 -7.75 C 143.21875 -9.269531 145.078125 -11.320312 147.046875 -13.90625 L 150.46875 -11.40625 C 147.28125 -6.6875 143.972656 -3.070312 140.546875 -0.5625 C 137.128906 1.9375 132.304688 3.1875 126.078125 3.1875 C 120.453125 3.1875 115.507812 1.515625 111.25 -1.828125 C 107 -5.171875 103.8125 -11.707031 101.6875 -21.4375 L 96.671875 -44.234375 C 95.296875 -50.765625 93.734375 -56.421875 91.984375 -61.203125 C 90.242188 -65.992188 87.8125 -69.757812 84.6875 -72.5 C 81.570312 -75.238281 76.976562 -76.609375 70.90625 -76.609375 L 46.28125 -76.609375 Z M 45.828125 -80.484375 "/></g></g></g><g fill="#254135" fill-opacity="1"><g transform="translate(148.008273, 668.926693)"><g><path d="M 32.609375 -174.40625 C 36.554688 -174.40625 39.972656 -172.960938 42.859375 -170.078125 C 45.742188 -167.191406 47.1875 -163.769531 47.1875 -159.8125 C 47.1875 -155.863281 45.742188 -152.441406 42.859375 -149.546875 C 39.972656 -146.660156 36.554688 -145.21875 32.609375 -145.21875 C 28.648438 -145.21875 25.226562 -146.660156 22.34375 -149.546875 C 19.457031 -152.441406 18.015625 -155.863281 18.015625 -159.8125 C 18.015625 -163.769531 19.457031 -167.191406 22.34375 -170.078125 C 25.226562 -172.960938 28.648438 -174.40625 32.609375 -174.40625 Z M 44.453125 -119.921875 L 44.453125 -21.203125 C 44.453125 -14.816406 45.78125 -10.484375 48.4375 -8.203125 C 51.101562 -5.921875 55.550781 -4.78125 61.78125 -4.78125 L 61.78125 0 C 59.195312 -0.15625 55.28125 -0.34375 50.03125 -0.5625 C 44.789062 -0.789062 39.515625 -0.90625 34.203125 -0.90625 C 29.035156 -0.90625 23.789062 -0.789062 18.46875 -0.5625 C 13.144531 -0.34375 9.191406 -0.15625 6.609375 0 L 6.609375 -4.78125 C 12.835938 -4.78125 17.28125 -5.921875 19.9375 -8.203125 C 22.601562 -10.484375 23.9375 -14.816406 23.9375 -21.203125 L 23.9375 -92.5625 C 23.9375 -99.40625 22.71875 -104.457031 20.28125 -107.71875 C 17.851562 -110.988281 13.296875 -112.625 6.609375 -112.625 L 6.609375 -117.40625 C 11.472656 -116.957031 16.1875 -116.734375 20.75 -116.734375 C 25.15625 -116.734375 29.367188 -117 33.390625 -117.53125 C 37.421875 -118.0625 41.109375 -118.859375 44.453125 -119.921875 Z M 44.453125 -119.921875 "/></g></g></g><g fill="#254135" fill-opacity="1"><g transform="translate(214.806638, 668.926693)"><g><path d="M 47.421875 -120.609375 C 53.503906 -120.609375 58.671875 -119.617188 62.921875 -117.640625 C 67.179688 -115.660156 70.296875 -113.835938 72.265625 -112.171875 C 77.285156 -108.066406 80.328125 -110.800781 81.390625 -120.375 L 86.640625 -120.375 C 86.328125 -116.125 86.09375 -111.070312 85.9375 -105.21875 C 85.789062 -99.363281 85.71875 -91.5 85.71875 -81.625 L 80.484375 -81.625 C 79.566406 -87.238281 78.003906 -92.707031 75.796875 -98.03125 C 73.597656 -103.351562 70.367188 -107.722656 66.109375 -111.140625 C 61.859375 -114.554688 56.3125 -116.265625 49.46875 -116.265625 C 44.15625 -116.265625 39.710938 -114.78125 36.140625 -111.8125 C 32.566406 -108.851562 30.78125 -104.488281 30.78125 -98.71875 C 30.78125 -94.15625 32.144531 -90.238281 34.875 -86.96875 C 37.613281 -83.707031 41.1875 -80.671875 45.59375 -77.859375 C 50 -75.046875 54.785156 -71.96875 59.953125 -68.625 C 65.734375 -64.976562 70.976562 -61.253906 75.6875 -57.453125 C 80.40625 -53.648438 84.164062 -49.46875 86.96875 -44.90625 C 89.78125 -40.351562 91.1875 -34.957031 91.1875 -28.71875 C 91.1875 -21.726562 89.363281 -15.878906 85.71875 -11.171875 C 82.070312 -6.460938 77.320312 -2.890625 71.46875 -0.453125 C 65.625 1.972656 59.203125 3.1875 52.203125 3.1875 C 48.859375 3.1875 45.703125 2.921875 42.734375 2.390625 C 39.773438 1.859375 36.929688 1.0625 34.203125 0 C 32.679688 -0.757812 31.117188 -1.671875 29.515625 -2.734375 C 27.921875 -3.796875 26.363281 -4.9375 24.84375 -6.15625 C 23.332031 -7.375 21.96875 -7.335938 20.75 -6.046875 C 19.53125 -4.753906 18.617188 -2.207031 18.015625 1.59375 L 12.765625 1.59375 C 13.066406 -3.269531 13.289062 -9.195312 13.4375 -16.1875 C 13.59375 -23.175781 13.671875 -32.445312 13.671875 -44 L 18.921875 -44 C 19.984375 -35.488281 21.503906 -28.039062 23.484375 -21.65625 C 25.460938 -15.269531 28.578125 -10.289062 32.828125 -6.71875 C 37.085938 -3.15625 43.015625 -1.375 50.609375 -1.375 C 53.648438 -1.375 56.726562 -2.054688 59.84375 -3.421875 C 62.957031 -4.785156 65.578125 -7.0625 67.703125 -10.25 C 69.835938 -13.445312 70.90625 -17.707031 70.90625 -23.03125 C 70.90625 -29.71875 68.472656 -35.1875 63.609375 -39.4375 C 58.742188 -43.695312 52.585938 -48.179688 45.140625 -52.890625 C 39.671875 -56.390625 34.539062 -59.882812 29.75 -63.375 C 24.96875 -66.875 21.09375 -70.828125 18.125 -75.234375 C 15.15625 -79.640625 13.671875 -84.957031 13.671875 -91.1875 C 13.671875 -98.03125 15.226562 -103.617188 18.34375 -107.953125 C 21.46875 -112.285156 25.613281 -115.476562 30.78125 -117.53125 C 35.945312 -119.582031 41.492188 -120.609375 47.421875 -120.609375 Z M 47.421875 -120.609375 "/></g></g></g><g fill="#254135" fill-opacity="1"><g transform="translate(316.71406, 668.926693)"><g><path d="M 42.40625 -178.734375 L 42.40625 -21.203125 C 42.40625 -14.816406 43.546875 -10.484375 45.828125 -8.203125 C 48.109375 -5.921875 51.984375 -4.78125 57.453125 -4.78125 L 57.453125 0 C 55.015625 -0.15625 51.398438 -0.34375 46.609375 -0.5625 C 41.828125 -0.789062 37.003906 -0.90625 32.140625 -0.90625 C 26.972656 -0.90625 21.726562 -0.789062 16.40625 -0.5625 C 11.09375 -0.34375 7.144531 -0.15625 4.5625 0 L 4.5625 -4.78125 C 10.789062 -4.78125 15.234375 -5.921875 17.890625 -8.203125 C 20.554688 -10.484375 21.890625 -14.816406 21.890625 -21.203125 L 21.890625 -151.375 C 21.890625 -158.21875 20.671875 -163.269531 18.234375 -166.53125 C 15.804688 -169.800781 11.25 -171.4375 4.5625 -171.4375 L 4.5625 -176.234375 C 9.425781 -175.773438 14.132812 -175.546875 18.6875 -175.546875 C 23.101562 -175.546875 27.320312 -175.8125 31.34375 -176.34375 C 35.375 -176.875 39.0625 -177.671875 42.40625 -178.734375 Z M 114.90625 -117.40625 L 114.90625 -112.859375 C 111.101562 -112.546875 107.53125 -111.515625 104.1875 -109.765625 C 100.84375 -108.023438 97.578125 -105.484375 94.390625 -102.140625 L 62.234375 -68.390625 L 65.4375 -74.78125 L 107.84375 -16.640625 C 110.425781 -13.148438 112.894531 -10.414062 115.25 -8.4375 C 117.601562 -6.457031 120.453125 -5.238281 123.796875 -4.78125 L 123.796875 0 C 122.117188 -0.15625 119.492188 -0.34375 115.921875 -0.5625 C 112.359375 -0.789062 108.828125 -0.90625 105.328125 -0.90625 C 100.617188 -0.90625 95.832031 -0.789062 90.96875 -0.5625 C 86.101562 -0.34375 82.453125 -0.15625 80.015625 0 L 80.015625 -4.78125 C 83.054688 -4.78125 85.1875 -5.539062 86.40625 -7.0625 C 87.625 -8.582031 87.394531 -10.410156 85.71875 -12.546875 L 59.5 -50.84375 C 56.613281 -54.945312 53.992188 -57.601562 51.640625 -58.8125 C 49.285156 -60.03125 45.90625 -60.71875 41.5 -60.875 L 41.5 -65.4375 C 46.351562 -66.039062 50.300781 -67.0625 53.34375 -68.5 C 56.382812 -69.945312 59.273438 -72.113281 62.015625 -75 L 78.875 -92.5625 C 83.738281 -97.570312 86.171875 -101.554688 86.171875 -104.515625 C 86.171875 -107.484375 84.613281 -109.613281 81.5 -110.90625 C 78.382812 -112.207031 74.320312 -112.859375 69.3125 -112.859375 L 69.3125 -117.40625 C 73.257812 -117.257812 77.703125 -117.070312 82.640625 -116.84375 C 87.578125 -116.613281 91.71875 -116.5 95.0625 -116.5 C 97.644531 -116.5 100.148438 -116.535156 102.578125 -116.609375 C 105.015625 -116.691406 107.296875 -116.804688 109.421875 -116.953125 C 111.554688 -117.109375 113.382812 -117.257812 114.90625 -117.40625 Z M 114.90625 -117.40625 "/></g></g></g><g fill="#254135" fill-opacity="1"><g transform="translate(439.367582, 668.926693)"><g/></g></g><g fill="#254135" fill-opacity="1"><g transform="translate(496.134773, 668.926693)"><g><path d="M 9.578125 -161.40625 C 12.765625 -161.257812 16.941406 -161.109375 22.109375 -160.953125 C 27.273438 -160.804688 32.367188 -160.734375 37.390625 -160.734375 C 44.535156 -160.734375 51.375 -160.804688 57.90625 -160.953125 C 64.445312 -161.109375 69.082031 -161.1875 71.8125 -161.1875 C 90.207031 -161.1875 103.960938 -157.003906 113.078125 -148.640625 C 122.203125 -140.285156 126.765625 -129.492188 126.765625 -116.265625 C 126.765625 -110.796875 125.847656 -105.054688 124.015625 -99.046875 C 122.191406 -93.046875 119.039062 -87.5 114.5625 -82.40625 C 110.082031 -77.320312 103.960938 -73.179688 96.203125 -69.984375 C 88.453125 -66.796875 78.648438 -65.203125 66.796875 -65.203125 L 44.90625 -65.203125 L 44.90625 -69.765625 L 64.515625 -69.765625 C 75.304688 -69.765625 83.550781 -71.816406 89.25 -75.921875 C 94.957031 -80.023438 98.832031 -85.421875 100.875 -92.109375 C 102.925781 -98.796875 103.953125 -106.015625 103.953125 -113.765625 C 103.953125 -128.203125 101.101562 -138.992188 95.40625 -146.140625 C 89.707031 -153.285156 79.941406 -156.859375 66.109375 -156.859375 C 59.117188 -156.859375 54.5625 -155.566406 52.4375 -152.984375 C 50.3125 -150.398438 49.25 -145.15625 49.25 -137.25 L 49.25 -24.171875 C 49.25 -18.691406 49.816406 -14.582031 50.953125 -11.84375 C 52.097656 -9.113281 54.34375 -7.289062 57.6875 -6.375 C 61.03125 -5.46875 65.890625 -4.863281 72.265625 -4.5625 L 72.265625 0 C 68.316406 -0.300781 63.300781 -0.488281 57.21875 -0.5625 C 51.144531 -0.644531 44.988281 -0.6875 38.75 -0.6875 C 32.820312 -0.6875 27.273438 -0.644531 22.109375 -0.5625 C 16.941406 -0.488281 12.765625 -0.300781 9.578125 0 L 9.578125 -4.5625 C 14.742188 -4.863281 18.65625 -5.46875 21.3125 -6.375 C 23.976562 -7.289062 25.765625 -9.113281 26.671875 -11.84375 C 27.585938 -14.582031 28.046875 -18.691406 28.046875 -24.171875 L 28.046875 -137.25 C 28.046875 -142.875 27.585938 -147.015625 26.671875 -149.671875 C 25.765625 -152.328125 23.976562 -154.148438 21.3125 -155.140625 C 18.65625 -156.128906 14.742188 -156.703125 9.578125 -156.859375 Z M 9.578125 -161.40625 "/></g></g></g><g fill="#254135" fill-opacity="1"><g transform="translate(627.907593, 668.926693)"><g><path d="M 38.984375 1.59375 C 32.753906 1.59375 27.359375 0.414062 22.796875 -1.9375 C 18.234375 -4.289062 14.773438 -7.59375 12.421875 -11.84375 C 10.066406 -16.101562 8.890625 -21.046875 8.890625 -26.671875 C 8.890625 -33.359375 10.445312 -38.828125 13.5625 -43.078125 C 16.675781 -47.335938 20.664062 -50.757812 25.53125 -53.34375 C 30.394531 -55.925781 35.523438 -58.09375 40.921875 -59.84375 C 46.316406 -61.59375 51.445312 -63.265625 56.3125 -64.859375 C 61.175781 -66.453125 65.164062 -68.3125 68.28125 -70.4375 C 71.394531 -72.570312 72.953125 -75.382812 72.953125 -78.875 L 72.953125 -93.015625 C 72.953125 -99.398438 72 -104.265625 70.09375 -107.609375 C 68.195312 -110.953125 65.65625 -113.191406 62.46875 -114.328125 C 59.28125 -115.472656 55.707031 -116.046875 51.75 -116.046875 C 47.945312 -116.046875 43.878906 -115.515625 39.546875 -114.453125 C 35.222656 -113.390625 31.769531 -111.1875 29.1875 -107.84375 C 32.070312 -107.226562 34.578125 -105.703125 36.703125 -103.265625 C 38.828125 -100.835938 39.890625 -97.722656 39.890625 -93.921875 C 39.890625 -90.128906 38.675781 -87.128906 36.25 -84.921875 C 33.820312 -82.722656 30.707031 -81.625 26.90625 -81.625 C 22.5 -81.625 19.269531 -83.023438 17.21875 -85.828125 C 15.164062 -88.640625 14.140625 -91.796875 14.140625 -95.296875 C 14.140625 -99.242188 15.125 -102.429688 17.09375 -104.859375 C 19.070312 -107.296875 21.582031 -109.582031 24.625 -111.71875 C 28.113281 -114.144531 32.632812 -116.234375 38.1875 -117.984375 C 43.738281 -119.734375 50.007812 -120.609375 57 -120.609375 C 63.226562 -120.609375 68.546875 -119.882812 72.953125 -118.4375 C 77.359375 -116.988281 81.003906 -114.898438 83.890625 -112.171875 C 87.847656 -108.523438 90.429688 -104.078125 91.640625 -98.828125 C 92.859375 -93.585938 93.46875 -87.316406 93.46875 -80.015625 L 93.46875 -16.640625 C 93.46875 -12.835938 94.035156 -10.097656 95.171875 -8.421875 C 96.316406 -6.753906 98.109375 -5.921875 100.546875 -5.921875 C 102.210938 -5.921875 103.804688 -6.300781 105.328125 -7.0625 C 106.847656 -7.820312 108.671875 -9.039062 110.796875 -10.71875 L 113.3125 -6.84375 C 110.113281 -4.40625 107.070312 -2.390625 104.1875 -0.796875 C 101.300781 0.796875 97.425781 1.59375 92.5625 1.59375 C 88.15625 1.59375 84.503906 0.832031 81.609375 -0.6875 C 78.722656 -2.207031 76.554688 -4.445312 75.109375 -7.40625 C 73.671875 -10.375 72.953125 -14.132812 72.953125 -18.6875 C 68.847656 -11.851562 63.945312 -6.765625 58.25 -3.421875 C 52.550781 -0.078125 46.128906 1.59375 38.984375 1.59375 Z M 47.1875 -7.53125 C 52.207031 -7.53125 56.882812 -8.972656 61.21875 -11.859375 C 65.550781 -14.742188 69.460938 -19.070312 72.953125 -24.84375 L 72.953125 -69.53125 C 71.128906 -66.945312 68.46875 -64.78125 64.96875 -63.03125 C 61.476562 -61.289062 57.679688 -59.546875 53.578125 -57.796875 C 49.472656 -56.046875 45.554688 -53.992188 41.828125 -51.640625 C 38.109375 -49.285156 35.03125 -46.207031 32.59375 -42.40625 C 30.164062 -38.601562 28.953125 -33.664062 28.953125 -27.59375 C 28.953125 -21.507812 30.582031 -16.644531 33.84375 -13 C 37.113281 -9.351562 41.5625 -7.53125 47.1875 -7.53125 Z M 47.1875 -7.53125 "/></g></g></g><g fill="#254135" fill-opacity="1"><g transform="translate(741.442029, 668.926693)"><g><path d="M 77.515625 -120.609375 C 81.617188 -120.609375 85.226562 -119.769531 88.34375 -118.09375 C 91.457031 -116.425781 93.890625 -114.257812 95.640625 -111.59375 C 97.390625 -108.9375 98.265625 -105.9375 98.265625 -102.59375 C 98.265625 -98.789062 97.082031 -95.445312 94.71875 -92.5625 C 92.363281 -89.675781 89.210938 -88.234375 85.265625 -88.234375 C 82.078125 -88.234375 79.265625 -89.257812 76.828125 -91.3125 C 74.398438 -93.363281 73.1875 -96.285156 73.1875 -100.078125 C 73.1875 -102.972656 73.984375 -105.445312 75.578125 -107.5 C 77.171875 -109.550781 78.957031 -111.179688 80.9375 -112.390625 C 79.875 -113.910156 78.273438 -114.671875 76.140625 -114.671875 C 71.429688 -114.671875 67.097656 -113.265625 63.140625 -110.453125 C 59.191406 -107.640625 55.847656 -104.03125 53.109375 -99.625 C 50.378906 -95.21875 48.253906 -90.546875 46.734375 -85.609375 C 45.210938 -80.671875 44.453125 -76.070312 44.453125 -71.8125 L 44.453125 -23.484375 C 44.453125 -16.035156 46.617188 -11.054688 50.953125 -8.546875 C 55.285156 -6.035156 61.175781 -4.78125 68.625 -4.78125 L 68.625 0 C 65.125 -0.15625 60.179688 -0.34375 53.796875 -0.5625 C 47.421875 -0.789062 40.660156 -0.90625 33.515625 -0.90625 C 28.347656 -0.90625 23.21875 -0.789062 18.125 -0.5625 C 13.03125 -0.34375 9.191406 -0.15625 6.609375 0 L 6.609375 -4.78125 C 12.835938 -4.78125 17.28125 -5.921875 19.9375 -8.203125 C 22.601562 -10.484375 23.9375 -14.816406 23.9375 -21.203125 L 23.9375 -92.5625 C 23.9375 -99.40625 22.71875 -104.457031 20.28125 -107.71875 C 17.851562 -110.988281 13.296875 -112.625 6.609375 -112.625 L 6.609375 -117.40625 C 11.472656 -116.957031 16.1875 -116.734375 20.75 -116.734375 C 25.15625 -116.734375 29.367188 -117 33.390625 -117.53125 C 37.421875 -118.0625 41.109375 -118.859375 44.453125 -119.921875 L 44.453125 -91.421875 C 46.128906 -95.828125 48.523438 -100.269531 51.640625 -104.75 C 54.753906 -109.238281 58.515625 -113.003906 62.921875 -116.046875 C 67.328125 -119.085938 72.191406 -120.609375 77.515625 -120.609375 Z M 77.515625 -120.609375 "/></g></g></g><g fill="#254135" fill-opacity="1"><g transform="translate(842.893462, 668.926693)"><g><path d="M 43.3125 -155.25 L 43.3125 -117.1875 L 77.0625 -117.1875 L 77.0625 -112.625 L 43.3125 -112.625 L 43.3125 -24.390625 C 43.3125 -17.242188 44.601562 -12.226562 47.1875 -9.34375 C 49.769531 -6.457031 53.34375 -5.015625 57.90625 -5.015625 C 62.46875 -5.015625 66.421875 -6.875 69.765625 -10.59375 C 73.109375 -14.320312 75.992188 -20.59375 78.421875 -29.40625 L 82.984375 -28.265625 C 81.460938 -19.453125 78.457031 -12.003906 73.96875 -5.921875 C 69.488281 0.148438 62.613281 3.1875 53.34375 3.1875 C 48.175781 3.1875 43.921875 2.539062 40.578125 1.25 C 37.234375 -0.0390625 34.269531 -1.898438 31.6875 -4.328125 C 28.34375 -7.828125 26.023438 -12.007812 24.734375 -16.875 C 23.441406 -21.738281 22.796875 -28.195312 22.796875 -36.25 L 22.796875 -112.625 L 0.90625 -112.625 L 0.90625 -117.1875 L 22.796875 -117.1875 L 22.796875 -152.0625 C 26.597656 -152.21875 30.242188 -152.519531 33.734375 -152.96875 C 37.234375 -153.425781 40.425781 -154.1875 43.3125 -155.25 Z M 43.3125 -155.25 "/></g></g></g><g fill="#254135" fill-opacity="1"><g transform="translate(923.598689, 668.926693)"><g><path d="M 83.21875 -120.609375 C 88.988281 -120.609375 93.8125 -119.847656 97.6875 -118.328125 C 101.5625 -116.804688 104.789062 -114.675781 107.375 -111.9375 C 110.269531 -108.894531 112.320312 -105.09375 113.53125 -100.53125 C 114.75 -95.976562 115.359375 -89.828125 115.359375 -82.078125 L 115.359375 -21.203125 C 115.359375 -14.816406 116.6875 -10.484375 119.34375 -8.203125 C 122.007812 -5.921875 126.457031 -4.78125 132.6875 -4.78125 L 132.6875 0 C 130.101562 -0.15625 126.148438 -0.34375 120.828125 -0.5625 C 115.515625 -0.789062 110.347656 -0.90625 105.328125 -0.90625 C 100.316406 -0.90625 95.414062 -0.789062 90.625 -0.5625 C 85.832031 -0.34375 82.222656 -0.15625 79.796875 0 L 79.796875 -4.78125 C 85.265625 -4.78125 89.140625 -5.921875 91.421875 -8.203125 C 93.703125 -10.484375 94.84375 -14.816406 94.84375 -21.203125 L 94.84375 -87.09375 C 94.84375 -91.800781 94.460938 -96.128906 93.703125 -100.078125 C 92.941406 -104.035156 91.226562 -107.226562 88.5625 -109.65625 C 85.90625 -112.09375 81.84375 -113.3125 76.375 -113.3125 C 69.988281 -113.3125 64.398438 -111.484375 59.609375 -107.828125 C 54.828125 -104.179688 51.101562 -99.203125 48.4375 -92.890625 C 45.78125 -86.585938 44.453125 -79.5625 44.453125 -71.8125 L 44.453125 -21.203125 C 44.453125 -14.816406 45.59375 -10.484375 47.875 -8.203125 C 50.15625 -5.921875 54.03125 -4.78125 59.5 -4.78125 L 59.5 0 C 57.070312 -0.15625 53.460938 -0.34375 48.671875 -0.5625 C 43.890625 -0.789062 38.988281 -0.90625 33.96875 -0.90625 C 28.957031 -0.90625 23.789062 -0.789062 18.46875 -0.5625 C 13.144531 -0.34375 9.191406 -0.15625 6.609375 0 L 6.609375 -4.78125 C 12.835938 -4.78125 17.28125 -5.921875 19.9375 -8.203125 C 22.601562 -10.484375 23.9375 -14.816406 23.9375 -21.203125 L 23.9375 -92.5625 C 23.9375 -99.40625 22.71875 -104.457031 20.28125 -107.71875 C 17.851562 -110.988281 13.296875 -112.625 6.609375 -112.625 L 6.609375 -117.40625 C 11.472656 -116.957031 16.1875 -116.734375 20.75 -116.734375 C 25.15625 -116.734375 29.367188 -117 33.390625 -117.53125 C 37.421875 -118.0625 41.109375 -118.859375 44.453125 -119.921875 L 44.453125 -93.015625 C 48.410156 -103.347656 53.921875 -110.53125 60.984375 -114.5625 C 68.054688 -118.59375 75.46875 -120.609375 83.21875 -120.609375 Z M 83.21875 -120.609375 "/></g></g></g><g fill="#254135" fill-opacity="1"><g transform="translate(1059.703241, 668.926693)"><g><path d="M 62.015625 -120.609375 C 75.390625 -120.609375 85.835938 -116.539062 93.359375 -108.40625 C 100.878906 -100.269531 104.640625 -87.617188 104.640625 -70.453125 L 24.171875 -70.453125 L 23.9375 -74.78125 L 82.765625 -74.78125 C 83.066406 -82.226562 82.457031 -89.101562 80.9375 -95.40625 C 79.414062 -101.71875 77.019531 -106.769531 73.75 -110.5625 C 70.476562 -114.363281 66.257812 -116.265625 61.09375 -116.265625 C 54.101562 -116.265625 47.910156 -112.769531 42.515625 -105.78125 C 37.117188 -98.789062 33.890625 -87.695312 32.828125 -72.5 L 33.515625 -71.59375 C 33.210938 -69.3125 32.984375 -66.800781 32.828125 -64.0625 C 32.679688 -61.320312 32.609375 -58.585938 32.609375 -55.859375 C 32.609375 -45.523438 34.28125 -36.632812 37.625 -29.1875 C 40.96875 -21.738281 45.332031 -16.078125 50.71875 -12.203125 C 56.113281 -8.328125 61.703125 -6.390625 67.484375 -6.390625 C 72.046875 -6.390625 76.378906 -7.109375 80.484375 -8.546875 C 84.585938 -9.992188 88.382812 -12.390625 91.875 -15.734375 C 95.375 -19.078125 98.414062 -23.5625 101 -29.1875 L 105.5625 -27.359375 C 103.882812 -22.335938 101.144531 -17.472656 97.34375 -12.765625 C 93.550781 -8.054688 88.765625 -4.21875 82.984375 -1.25 C 77.210938 1.707031 70.523438 3.1875 62.921875 3.1875 C 51.984375 3.1875 42.597656 0.679688 34.765625 -4.328125 C 26.941406 -9.347656 20.9375 -16.300781 16.75 -25.1875 C 12.570312 -34.082031 10.484375 -44.304688 10.484375 -55.859375 C 10.484375 -69.234375 12.609375 -80.742188 16.859375 -90.390625 C 21.117188 -100.046875 27.125 -107.492188 34.875 -112.734375 C 42.632812 -117.984375 51.679688 -120.609375 62.015625 -120.609375 Z M 62.015625 -120.609375 "/></g></g></g><g fill="#254135" fill-opacity="1"><g transform="translate(1175.061482, 668.926693)"><g><path d="M 77.515625 -120.609375 C 81.617188 -120.609375 85.226562 -119.769531 88.34375 -118.09375 C 91.457031 -116.425781 93.890625 -114.257812 95.640625 -111.59375 C 97.390625 -108.9375 98.265625 -105.9375 98.265625 -102.59375 C 98.265625 -98.789062 97.082031 -95.445312 94.71875 -92.5625 C 92.363281 -89.675781 89.210938 -88.234375 85.265625 -88.234375 C 82.078125 -88.234375 79.265625 -89.257812 76.828125 -91.3125 C 74.398438 -93.363281 73.1875 -96.285156 73.1875 -100.078125 C 73.1875 -102.972656 73.984375 -105.445312 75.578125 -107.5 C 77.171875 -109.550781 78.957031 -111.179688 80.9375 -112.390625 C 79.875 -113.910156 78.273438 -114.671875 76.140625 -114.671875 C 71.429688 -114.671875 67.097656 -113.265625 63.140625 -110.453125 C 59.191406 -107.640625 55.847656 -104.03125 53.109375 -99.625 C 50.378906 -95.21875 48.253906 -90.546875 46.734375 -85.609375 C 45.210938 -80.671875 44.453125 -76.070312 44.453125 -71.8125 L 44.453125 -23.484375 C 44.453125 -16.035156 46.617188 -11.054688 50.953125 -8.546875 C 55.285156 -6.035156 61.175781 -4.78125 68.625 -4.78125 L 68.625 0 C 65.125 -0.15625 60.179688 -0.34375 53.796875 -0.5625 C 47.421875 -0.789062 40.660156 -0.90625 33.515625 -0.90625 C 28.347656 -0.90625 23.21875 -0.789062 18.125 -0.5625 C 13.03125 -0.34375 9.191406 -0.15625 6.609375 0 L 6.609375 -4.78125 C 12.835938 -4.78125 17.28125 -5.921875 19.9375 -8.203125 C 22.601562 -10.484375 23.9375 -14.816406 23.9375 -21.203125 L 23.9375 -92.5625 C 23.9375 -99.40625 22.71875 -104.457031 20.28125 -107.71875 C 17.851562 -110.988281 13.296875 -112.625 6.609375 -112.625 L 6.609375 -117.40625 C 11.472656 -116.957031 16.1875 -116.734375 20.75 -116.734375 C 25.15625 -116.734375 29.367188 -117 33.390625 -117.53125 C 37.421875 -118.0625 41.109375 -118.859375 44.453125 -119.921875 L 44.453125 -91.421875 C 46.128906 -95.828125 48.523438 -100.269531 51.640625 -104.75 C 54.753906 -109.238281 58.515625 -113.003906 62.921875 -116.046875 C 67.328125 -119.085938 72.191406 -120.609375 77.515625 -120.609375 Z M 77.515625 -120.609375 "/></g></g></g><g fill="#254135" fill-opacity="1"><g transform="translate(1276.512915, 668.926693)"><g><path d="M 47.421875 -120.609375 C 53.503906 -120.609375 58.671875 -119.617188 62.921875 -117.640625 C 67.179688 -115.660156 70.296875 -113.835938 72.265625 -112.171875 C 77.285156 -108.066406 80.328125 -110.800781 81.390625 -120.375 L 86.640625 -120.375 C 86.328125 -116.125 86.09375 -111.070312 85.9375 -105.21875 C 85.789062 -99.363281 85.71875 -91.5 85.71875 -81.625 L 80.484375 -81.625 C 79.566406 -87.238281 78.003906 -92.707031 75.796875 -98.03125 C 73.597656 -103.351562 70.367188 -107.722656 66.109375 -111.140625 C 61.859375 -114.554688 56.3125 -116.265625 49.46875 -116.265625 C 44.15625 -116.265625 39.710938 -114.78125 36.140625 -111.8125 C 32.566406 -108.851562 30.78125 -104.488281 30.78125 -98.71875 C 30.78125 -94.15625 32.144531 -90.238281 34.875 -86.96875 C 37.613281 -83.707031 41.1875 -80.671875 45.59375 -77.859375 C 50 -75.046875 54.785156 -71.96875 59.953125 -68.625 C 65.734375 -64.976562 70.976562 -61.253906 75.6875 -57.453125 C 80.40625 -53.648438 84.164062 -49.46875 86.96875 -44.90625 C 89.78125 -40.351562 91.1875 -34.957031 91.1875 -28.71875 C 91.1875 -21.726562 89.363281 -15.878906 85.71875 -11.171875 C 82.070312 -6.460938 77.320312 -2.890625 71.46875 -0.453125 C 65.625 1.972656 59.203125 3.1875 52.203125 3.1875 C 48.859375 3.1875 45.703125 2.921875 42.734375 2.390625 C 39.773438 1.859375 36.929688 1.0625 34.203125 0 C 32.679688 -0.757812 31.117188 -1.671875 29.515625 -2.734375 C 27.921875 -3.796875 26.363281 -4.9375 24.84375 -6.15625 C 23.332031 -7.375 21.96875 -7.335938 20.75 -6.046875 C 19.53125 -4.753906 18.617188 -2.207031 18.015625 1.59375 L 12.765625 1.59375 C 13.066406 -3.269531 13.289062 -9.195312 13.4375 -16.1875 C 13.59375 -23.175781 13.671875 -32.445312 13.671875 -44 L 18.921875 -44 C 19.984375 -35.488281 21.503906 -28.039062 23.484375 -21.65625 C 25.460938 -15.269531 28.578125 -10.289062 32.828125 -6.71875 C 37.085938 -3.15625 43.015625 -1.375 50.609375 -1.375 C 53.648438 -1.375 56.726562 -2.054688 59.84375 -3.421875 C 62.957031 -4.785156 65.578125 -7.0625 67.703125 -10.25 C 69.835938 -13.445312 70.90625 -17.707031 70.90625 -23.03125 C 70.90625 -29.71875 68.472656 -35.1875 63.609375 -39.4375 C 58.742188 -43.695312 52.585938 -48.179688 45.140625 -52.890625 C 39.671875 -56.390625 34.539062 -59.882812 29.75 -63.375 C 24.96875 -66.875 21.09375 -70.828125 18.125 -75.234375 C 15.15625 -79.640625 13.671875 -84.957031 13.671875 -91.1875 C 13.671875 -98.03125 15.226562 -103.617188 18.34375 -107.953125 C 21.46875 -112.285156 25.613281 -115.476562 30.78125 -117.53125 C 35.945312 -119.582031 41.492188 -120.609375 47.421875 -120.609375 Z M 47.421875 -120.609375 "/></g></g></g></g></g></svg>