<?xml version="1.0" encoding="utf-8"?>
<!-- Generator: Adobe Illustrator 16.0.0, SVG Export Plug-In . SVG Version: 6.00 Build 0)  -->
<!DOCTYPE svg PUBLIC "-//W3C//DTD SVG 1.1//EN" "http://www.w3.org/Graphics/SVG/1.1/DTD/svg11.dtd">
<svg version="1.1" id="Layer_1" xmlns="http://www.w3.org/2000/svg" xmlns:xlink="http://www.w3.org/1999/xlink" x="0px" y="0px"
	 width="333.466px" height="134.526px" viewBox="0 0 333.466 134.526" enable-background="new 0 0 333.466 134.526"
	 xml:space="preserve">
<g>
	<path fill="#5692B5" d="M99.841,44.478c0,0-0.383,0.585-13.985-3.526c-8.22-2.485-11.018-3.743-17.049-4.443
		c-11.83-1.372-16.464,8.772-16.56,8.985c-0.096-0.213-4.731-10.357-16.56-8.985c-6.031,0.7-8.829,1.958-17.049,4.443
		C5.036,45.063,4.653,44.478,4.653,44.478L0,100.518c7.929,1.083,12.962,1.704,18.207-1.118c5.245-2.824,8.252-5.23,16.261-5.23
		c7.992,0,14.03,3.237,17.768,9.647v0.037c0.004-0.007,0.007-0.013,0.011-0.02c0.004,0.007,0.007,0.013,0.011,0.02v-0.037
		c3.738-6.41,9.775-9.647,17.768-9.647c8.009,0,11.016,2.406,16.261,5.23c5.245,2.822,10.278,2.201,18.206,1.118L99.841,44.478z
		 M74.096,84.209c-5.087-1.185-8.527-0.775-12.199,0.334c-4.381,1.324-9.638,4.939-9.638,4.939v0.021
		c-0.001-0.003-0.003-0.007-0.006-0.01v0.01c-0.001-0.001-0.002-0.003-0.003-0.005c-0.001,0.002-0.002,0.004-0.003,0.005v-0.01
		c-0.002,0.003-0.004,0.007-0.006,0.01v-0.021c0,0-5.257-3.615-9.638-4.939c-3.671-1.109-7.112-1.519-12.199-0.334
		c-3.726,0.868-9.123,2.683-9.123,2.683l1.861-31.508c0,0,1.975,0.337,9.791-2.026c4.724-1.427,6.332-2.15,9.798-2.552
		c6.798-0.789,9.461,5.04,9.516,5.163h0.006c0.055-0.123,2.719-5.952,9.516-5.163c3.466,0.402,5.074,1.125,9.797,2.552
		c7.817,2.363,9.793,2.026,9.793,2.026l1.861,31.508C83.22,86.892,77.823,85.077,74.096,84.209"/>
	<path fill="#5692B5" d="M68.584,60.938c0,0-0.599-0.279-5.132-1.649c-2.74-0.828-3.589-0.484-5.682-0.441
		c-3.969,0.081-5.488,3.163-5.52,3.234h-0.002c-0.032-0.071-1.551-3.26-5.519-3.341c-2.094-0.043-2.943-0.163-5.682,0.665
		c-4.534,1.37-5.133,1.649-5.133,1.649l-1.079,18.019c0,0,4.751-2.496,9.438-1.211c3.111,0.853,7.919,3.628,7.974,3.66v0.003
		l0.002-0.002l0.003,0.002v-0.003c0.054-0.032,4.863-2.808,7.973-3.66c4.687-1.285,9.438,1.211,9.438,1.211L68.584,60.938z"/>
	<path fill="#5692B5" d="M52.25,32.692c2.388-2.562,6.071-6.337,8.687-8.597c5.552-5.011,13.343-8.136,20.809-7.693
		c4.842,0.081,11.97,2.458,18.926,4.406c3.882,1.086,10.397,3.191,15.409,3.719c6.357,0.67,13.062-1.954,13.062-1.954
		s-7.023,8.228-15.618,11.664c-6.739,2.694-15.561,2.405-22.391,0.255c-6.69-1.645-16.379-6.963-29.137-4.743
		C57.683,30.5,52.25,32.692,52.25,32.692"/>
	<path fill="#5692B5" d="M66.523,15.244c0,0,4.279-1.71,6.636-2.253c8.54-1.89,17.664-0.313,25.473,2.203
		c3.211,0.988,6.509,2.021,9.77,2.854c3.754,0.991,7.799,1.94,11.937,2.035c4.24-0.064,8.199-1.239,11.706-3.227
		c5.868-3.564,14.665-14.232,14.665-14.232s-8.394,4.259-13.099,4.637c-6.339,0.286-12.221-1.394-17.867-3.283
		c-6.611-2.211-13.363-4.068-20.486-3.975c-6.533,0.164-11.723,2.774-17.195,6.3C73.97,8.941,70.322,11.37,66.523,15.244"/>
	<path fill="#7E8A91" d="M124.724,65.196h4.607c2.336,0,3.072-0.959,3.712-3.838h1.408l-0.48,5.406h-14.847v-1.119
		c2.144-0.064,2.56-0.607,2.56-2.431V48.27c0-1.824-0.416-2.367-2.56-2.431v-1.122h8.32v1.122c-2.273,0.064-2.72,0.671-2.72,2.496
		V65.196z"/>
	<path fill="#7E8A91" d="M152.611,50.542c4.032,0,6.4,2.783,6.4,7.648v0.863h-10.207c0.063,4.639,1.663,6.143,5.023,6.143
		c1.376,0,3.136-0.607,4.256-1.344l0.672,1.088c-1.536,1.186-3.424,2.176-5.696,2.176c-2.528,0-4.512-0.928-5.759-2.654
		c-1.057,1.566-2.817,2.654-5.6,2.654c-3.072,0-5.152-1.504-5.152-4.447c0-3.84,3.36-5.184,8.384-5.184h0.927v-1.471
		c-0.032-2.656-0.511-3.84-2.719-3.84c-2.688,0-3.456,1.409-3.712,2.879h-2.016v-2.847c1.344-0.737,3.808-1.631,5.984-1.631
		c2.175,0,3.647,0.607,4.479,1.92C149.091,51.247,150.755,50.542,152.611,50.542 M146.436,62.894
		c-0.449-1.088-0.577-2.367-0.609-3.84h-0.96c-3.647,0-5.215,0.959-5.215,3.393c0,2.271,1.344,2.75,2.751,2.75
		C144.067,65.196,145.38,64.428,146.436,62.894 M148.834,57.485h7.136c0-3.902-0.992-5.406-3.424-5.406
		C150.371,52.079,149.06,53.389,148.834,57.485"/>
	<path fill="#7E8A91" d="M170.089,50.542c0.353,0,0.704,0.064,0.96,0.16l-0.704,3.168c-0.224-0.096-0.512-0.16-0.991-0.16
		c-2.624,0-3.488,1.023-3.488,4.127v5.6c0,1.824,0.32,2.144,2.72,2.24v1.088h-7.872v-1.088c1.824-0.127,2.24-0.416,2.24-2.24v-7.838
		c0-2.336-0.448-2.657-2.336-2.721v-0.959l4.096-1.281h0.48c0.224,0.545,0.544,1.888,0.544,3.648
		C166.986,52.079,168.361,50.542,170.089,50.542"/>
	<path fill="#7E8A91" d="M184.323,63.853l0.672,1.088c-1.536,1.186-3.424,2.176-5.694,2.176c-4.577,0-7.328-3.07-7.328-8.319
		c0-5.214,2.943-8.255,6.879-8.255c4.032,0,6.399,2.783,6.399,7.648v0.863h-10.207c0.063,4.639,1.664,6.143,5.023,6.143
		C181.443,65.196,183.203,64.589,184.323,63.853 M175.076,57.485h7.135c0-3.902-0.99-5.406-3.424-5.406
		C176.611,52.079,175.3,53.389,175.076,57.485"/>
	<path fill="#7E8A91" d="M196.296,50.542c0.354,0,0.704,0.064,0.96,0.16l-0.704,3.168c-0.224-0.096-0.512-0.16-0.99-0.16
		c-2.624,0-3.489,1.023-3.489,4.127v5.6c0,1.824,0.32,2.144,2.72,2.24v1.088h-7.871v-1.088c1.824-0.127,2.24-0.416,2.24-2.24v-7.838
		c0-2.336-0.448-2.657-2.336-2.721v-0.959l4.096-1.281h0.479c0.225,0.545,0.544,1.888,0.544,3.648
		C193.193,52.079,194.569,50.542,196.296,50.542"/>
	<path fill="#7E8A91" d="M198.543,65.806v-3.104h2.145c0.224,2.176,1.184,2.975,3.423,2.975c1.825,0,3.296-0.736,3.296-2.783
		c0-1.729-0.927-2.336-2.752-2.783l-1.887-0.45c-2.4-0.576-4.064-1.855-4.064-4.447c0-3.008,2.528-4.607,5.6-4.607
		c2.496,0,4.031,0.736,4.801,1.119v2.881h-2.049c-0.32-1.697-1.216-2.528-3.008-2.528c-1.888,0-2.943,0.928-2.943,2.463
		c0,1.344,0.607,2.08,2.56,2.528l1.888,0.449c3.009,0.703,4.385,2.047,4.385,4.351c0,3.2-2.369,5.28-6.113,5.28
		C200.879,67.149,199.312,66.286,198.543,65.806"/>
	<path fill="#7E8A91" d="M219.724,52.813h-3.392v9.664c0,2.496,0.448,3.072,2.048,3.072c0.544,0,1.152-0.095,1.823-0.32l0.256,1.152
		c-1.055,0.543-2.079,0.832-3.167,0.832c-2.4,0-3.872-1.121-3.872-4.32v-10.08h-1.92v-1.023l2.144-0.737
		c0.288-1.504,0.769-3.23,1.504-4.416l1.505-0.383c-0.16,1.153-0.288,3.168-0.288,4.799h3.807L219.724,52.813z"/>
	<path fill="#7E8A91" d="M236.513,65.549v1.055c-0.479,0.193-1.375,0.354-2.207,0.354c-2.272,0-2.752-0.93-2.912-2.274
		c-0.544,0.961-1.983,2.561-4.384,2.561c-3.071,0-5.15-1.633-5.15-4.577c0-3.839,3.358-5.15,8.382-5.15c0.385,0,0.705,0,1.121,0.031
		v-1.408c0-2.752-0.641-3.967-2.912-3.967c-2.688,0-3.456,1.409-3.711,2.879h-2.018v-2.847c1.346-0.737,3.81-1.631,5.984-1.631
		c3.583,0,5.567,1.631,5.567,5.375c0,0.959-0.128,3.711-0.128,6.623C234.146,64.974,234.434,65.39,236.513,65.549 M230.178,59.022
		c-3.646,0-5.216,0.99-5.216,3.424c0,2.271,0.897,2.974,2.752,2.974c1.504,0,2.752-1.054,3.487-2.336l0.097-4
		C230.85,59.053,230.594,59.022,230.178,59.022"/>
	<path fill="#7E8A91" d="M253.064,63.437c0,1.824,0.384,2.113,2.08,2.24v1.088h-7.23v-1.088c2.015-0.095,2.238-0.447,2.238-2.015
		v-8.127c0-1.889-0.8-2.625-2.336-2.625c-1.92,0-3.136,0.769-4.415,2.017v8.735c0,1.568,0.225,1.92,2.239,2.015v1.088h-7.391v-1.088
		c1.823-0.127,2.239-0.416,2.239-2.24v-7.838c0-2.336-0.447-2.656-2.336-2.721v-0.959l4.097-1.281h0.479
		c0.225,0.512,0.512,1.664,0.544,2.785c1.439-1.504,3.039-2.752,5.473-2.752c2.559,0,4.318,1.504,4.318,4.287V63.437z"/>
	<path fill="#7E8A91" d="M262.725,67.085c-3.264,0-6.303-2.207-6.303-8.031c0-4.992,2.463-8.383,6.559-8.383
		c1.601,0,3.168,0.639,4.352,1.92v-4.512c0-2.336-0.544-2.656-2.432-2.721v-1.023l4.672-0.928h0.672v18.942
		c0,2.336,0.48,2.656,2.528,2.72v0.959l-4.064,1.153h-0.479c-0.192-0.383-0.608-1.504-0.704-2.783
		C266.309,65.966,264.422,67.085,262.725,67.085 M263.237,65.294c1.44,0,2.816-0.896,4.096-2.305v-8.672
		c-0.991-1.214-2.527-1.822-3.871-1.822c-2.432,0-3.904,1.184-3.904,6.174C259.557,63.63,260.709,65.294,263.237,65.294"/>
	<path fill="#7E8A91" d="M286.209,63.853l0.672,1.088c-1.536,1.186-3.424,2.176-5.694,2.176c-4.577,0-7.328-3.07-7.328-8.319
		c0-5.214,2.943-8.255,6.879-8.255c4.032,0,6.399,2.783,6.399,7.648v0.863H276.93c0.063,4.639,1.664,6.143,5.023,6.143
		C283.33,65.196,285.089,64.589,286.209,63.853 M276.962,57.485h7.135c0-3.902-0.99-5.406-3.424-5.406
		C278.498,52.079,277.187,53.389,276.962,57.485"/>
	<path fill="#7E8A91" d="M303.623,63.437c0,1.824,0.385,2.113,2.08,2.24v1.088h-7.23v-1.088c2.015-0.095,2.239-0.447,2.239-2.015
		v-8.127c0-1.889-0.8-2.625-2.336-2.625c-1.92,0-3.136,0.769-4.416,2.017v8.735c0,1.568,0.226,1.92,2.24,2.015v1.088h-7.391v-1.088
		c1.823-0.127,2.239-0.416,2.239-2.24v-7.838c0-2.336-0.447-2.656-2.336-2.721v-0.959l4.097-1.281h0.479
		c0.226,0.512,0.512,1.664,0.544,2.785c1.44-1.504,3.04-2.752,5.473-2.752c2.559,0,4.318,1.504,4.318,4.287V63.437z"/>
	<path fill="#7E8A91" d="M307.685,65.806v-3.104h2.145c0.223,2.176,1.183,2.975,3.423,2.975c1.824,0,3.296-0.736,3.296-2.783
		c0-1.729-0.928-2.336-2.752-2.783l-1.887-0.45c-2.401-0.576-4.065-1.855-4.065-4.447c0-3.008,2.529-4.607,5.6-4.607
		c2.496,0,4.032,0.736,4.801,1.119v2.881h-2.049c-0.319-1.697-1.216-2.528-3.008-2.528c-1.888,0-2.942,0.928-2.942,2.463
		c0,1.344,0.606,2.08,2.559,2.528l1.888,0.449c3.009,0.703,4.385,2.047,4.385,4.351c0,3.2-2.369,5.28-6.112,5.28
		C310.02,67.149,308.454,66.286,307.685,65.806"/>
	<path fill="#7E8A91" d="M119.125,99.646c2.143-0.064,2.559-0.607,2.559-2.432V82.271c0-1.824-0.416-2.367-2.559-2.432v-1.122h8.063
		c5.696,0,7.999,1.921,7.999,5.442c0,2.303-1.024,3.998-4.032,4.767v0.127c3.521,0.546,5.153,2.849,5.153,5.664
		c0,4.257-3.584,6.048-7.712,6.048h-9.471V99.646z M128.019,88.51c3.105,0,4.096-1.343,4.096-4c0-3.103-1.119-4.224-4.223-4.224
		h-3.167v8.224H128.019z M128.788,99.196c3.424,0,4.319-1.439,4.319-4.67c0-3.264-1.023-4.48-4.863-4.48h-3.519v9.15H128.788z"/>
	<path fill="#7E8A91" d="M147.257,84.542c0.353,0,0.704,0.063,0.96,0.16l-0.704,3.168c-0.224-0.097-0.512-0.16-0.991-0.16
		c-2.624,0-3.489,1.023-3.489,4.127v5.6c0,1.824,0.321,2.145,2.72,2.24v1.088h-7.871v-1.088c1.824-0.127,2.24-0.416,2.24-2.24
		v-7.838c0-2.336-0.448-2.656-2.336-2.721v-0.959l4.096-1.281h0.479c0.225,0.545,0.544,1.889,0.544,3.648
		C144.153,86.079,145.53,84.542,147.257,84.542"/>
	<path fill="#7E8A91" d="M164.025,99.55v1.055c-0.48,0.193-1.375,0.354-2.207,0.354c-2.273,0-2.752-0.93-2.912-2.273
		c-0.544,0.961-1.984,2.561-4.384,2.561c-3.071,0-5.151-1.633-5.151-4.577c0-3.839,3.359-5.149,8.382-5.149
		c0.385,0,0.705,0,1.121,0.031v-1.408c0-2.752-0.64-3.967-2.912-3.967c-2.688,0-3.456,1.408-3.711,2.879h-2.017v-2.848
		c1.345-0.736,3.809-1.631,5.984-1.631c3.583,0,5.568,1.631,5.568,5.375c0,0.959-0.128,3.711-0.128,6.623
		C161.658,98.974,161.946,99.39,164.025,99.55 M157.69,93.022c-3.647,0-5.216,0.99-5.216,3.424c0,2.271,0.897,2.975,2.752,2.975
		c1.504,0,2.752-1.055,3.487-2.337l0.097-4C158.362,93.054,158.106,93.022,157.69,93.022"/>
	<path fill="#7E8A91" d="M180.576,97.437c0,1.824,0.384,2.113,2.08,2.24v1.088h-7.23v-1.088c2.015-0.096,2.238-0.447,2.238-2.016
		v-8.127c0-1.889-0.8-2.625-2.336-2.625c-1.92,0-3.136,0.77-4.415,2.018v8.734c0,1.568,0.225,1.92,2.239,2.016v1.088h-7.391v-1.088
		c1.824-0.127,2.24-0.416,2.24-2.24v-7.838c0-2.336-0.447-2.656-2.335-2.721v-0.959l4.096-1.281h0.479
		c0.225,0.512,0.512,1.664,0.544,2.785c1.439-1.504,3.039-2.752,5.473-2.752c2.559,0,4.318,1.504,4.318,4.286V97.437z"/>
	<path fill="#7E8A91" d="M190.237,101.085c-3.263,0-6.303-2.207-6.303-8.031c0-4.992,2.463-8.383,6.559-8.383
		c1.6,0,3.168,0.639,4.353,1.92v-4.512c0-2.336-0.545-2.656-2.433-2.721v-1.023l4.671-0.928h0.673v18.941
		c0,2.336,0.479,2.656,2.527,2.721v0.959l-4.063,1.152h-0.481c-0.191-0.383-0.607-1.504-0.704-2.783
		C193.82,99.966,191.933,101.085,190.237,101.085 M190.749,99.294c1.439,0,2.815-0.896,4.097-2.305v-8.672
		c-0.992-1.215-2.529-1.822-3.872-1.822c-2.433,0-3.904,1.184-3.904,6.174C187.069,97.63,188.221,99.294,190.749,99.294"/>
	<path fill="#7E8A91" d="M207.2,97.437c0,1.729,0.353,2.145,2.849,2.24v1.088h-8v-1.088c1.823-0.127,2.239-0.416,2.239-2.24V86.813
		h-2.016V85.79l2.016-0.736v-3.008c0-2.943,2.08-4.639,5.088-4.639c1.217,0,2.655,0.256,3.425,0.576l-0.288,2.654h-1.953
		c-0.16-1.056-0.607-1.662-1.471-1.662c-1.217,0-1.921,0.832-1.921,3.039v3.039h3.872l-0.447,1.76H207.2V97.437z"/>
	<path fill="#7E8A91" d="M219.013,101.149c-4.287,0-7.359-3.072-7.359-8.287c0-5.184,3.072-8.287,7.296-8.287
		c4.735,0,7.424,3.615,7.424,8.447C226.374,98.108,223.269,101.149,219.013,101.149 M218.95,86.142c-3.2,0-4.16,2.432-4.16,6.4
		c0,4.832,1.152,7.039,4.288,7.039c2.752,0,4.159-2.303,4.159-6.432C223.237,88.255,221.733,86.142,218.95,86.142"/>
	<path fill="#7E8A91" d="M237.218,84.542c0.353,0,0.704,0.063,0.96,0.16l-0.704,3.168c-0.224-0.097-0.512-0.16-0.991-0.16
		c-2.624,0-3.488,1.023-3.488,4.127v5.6c0,1.824,0.319,2.145,2.72,2.24v1.088h-7.872v-1.088c1.824-0.127,2.24-0.416,2.24-2.24
		v-7.838c0-2.336-0.448-2.656-2.336-2.721v-0.959l4.096-1.281h0.48c0.224,0.545,0.544,1.889,0.544,3.648
		C234.115,86.079,235.49,84.542,237.218,84.542"/>
	<path fill="#7E8A91" d="M239.462,99.806v-3.104h2.145c0.223,2.177,1.183,2.976,3.423,2.976c1.824,0,3.296-0.736,3.296-2.783
		c0-1.729-0.928-2.336-2.752-2.783l-1.887-0.45c-2.401-0.575-4.065-1.854-4.065-4.446c0-3.008,2.529-4.607,5.6-4.607
		c2.496,0,4.032,0.736,4.801,1.119v2.881h-2.049c-0.319-1.697-1.216-2.528-3.008-2.528c-1.888,0-2.942,0.929-2.942,2.464
		c0,1.344,0.606,2.08,2.559,2.527l1.888,0.449c3.008,0.703,4.385,2.047,4.385,4.351c0,3.2-2.369,5.28-6.112,5.28
		C241.797,101.149,240.231,100.285,239.462,99.806"/>
	<path fill="#7E8A91" d="M252.502,100.765v-1.088c1.823-0.127,2.239-0.416,2.239-2.24v-7.838c0-2.336-0.448-2.656-2.336-2.721
		v-0.959l4.769-1.281h0.479v12.799c0,1.824,0.224,2.145,2.239,2.24v1.088H252.502z M255.99,82.175c-1.12,0-1.983-0.896-1.983-2.016
		c0-1.121,0.863-2.016,1.983-2.016s1.983,0.895,1.983,2.016C257.973,81.278,257.11,82.175,255.99,82.175"/>
	<path fill="#7E8A91" d="M261.718,99.677c1.823-0.127,2.239-0.416,2.239-2.24V82.079c0-2.336-0.544-2.656-2.432-2.721v-1.023
		l4.479-0.928h0.48c0.192,0.576,0.384,1.727,0.384,3.168v17.086c0,1.568,0.225,1.92,2.239,2.016v1.088h-7.391V99.677z
		 M267.158,92.382l4.384-4.48c1.056-1.055,0.607-1.695-0.863-1.76v-1.088h6.015v1.088c-1.28,0.129-2.176,1.152-3.68,2.625
		l-2.944,2.912l4.832,6.078c0.992,1.248,1.76,1.793,2.816,1.92v1.088h-3.872L267.158,92.382z"/>
	<path fill="#7E8A91" d="M288.581,84.542c0.354,0,0.704,0.063,0.96,0.16l-0.704,3.168c-0.224-0.097-0.512-0.16-0.99-0.16
		c-2.624,0-3.489,1.023-3.489,4.127v5.6c0,1.824,0.321,2.145,2.72,2.24v1.088h-7.871v-1.088c1.824-0.127,2.24-0.416,2.24-2.24
		v-7.838c0-2.336-0.448-2.656-2.336-2.721v-0.959l4.096-1.281h0.479c0.225,0.545,0.544,1.889,0.544,3.648
		C285.477,86.079,286.853,84.542,288.581,84.542"/>
	<path fill="#7E8A91" d="M291.116,100.765v-1.088c1.824-0.127,2.24-0.416,2.24-2.24v-7.838c0-2.336-0.447-2.656-2.336-2.721v-0.959
		l4.769-1.281h0.479v12.799c0,1.824,0.226,2.145,2.24,2.24v1.088H291.116z M294.603,82.175c-1.119,0-1.982-0.896-1.982-2.016
		c0-1.121,0.863-2.016,1.982-2.016c1.12,0,1.984,0.895,1.984,2.016C296.587,81.278,295.723,82.175,294.603,82.175"/>
	<path fill="#7E8A91" d="M315.146,97.437c0,1.824,0.385,2.113,2.08,2.24v1.088h-7.23v-1.088c2.015-0.096,2.239-0.447,2.239-2.016
		v-8.127c0-1.889-0.8-2.625-2.336-2.625c-1.92,0-3.136,0.77-4.416,2.018v8.734c0,1.568,0.226,1.92,2.24,2.016v1.088h-7.391v-1.088
		c1.823-0.127,2.239-0.416,2.239-2.24v-7.838c0-2.336-0.447-2.656-2.336-2.721v-0.959l4.097-1.281h0.479
		c0.225,0.512,0.512,1.664,0.544,2.785c1.44-1.504,3.04-2.752,5.472-2.752c2.56,0,4.319,1.504,4.319,4.286V97.437z"/>
	<path fill="#7E8A91" d="M318.492,103.134c0-1.152,0.863-1.793,1.632-2.24l1.344-0.064c-0.16,0.287-0.352,0.992-0.352,1.664
		c0,1.791,0.96,2.783,4.031,2.783c3.359,0,4.479-1.248,4.479-2.976c0-1.952-0.799-2.368-4.992-2.464
		c-1.119-0.031-2.239-0.127-2.847-0.191c-1.408-0.16-2.08-1.313-2.08-2.496c0-1.248,1.248-2.176,2.976-2.752
		c-2.336-0.543-3.808-2.432-3.808-4.543c0-3.104,2.336-5.248,6.016-5.248c0.863,0,1.535,0.064,2.495,0.352
		c0.832,0.256,1.696,0.511,2.401,0.511c0.96,0,1.727-0.382,2.591-0.991l1.088,2.08c-0.704,0.352-1.408,0.575-2.24,0.575
		c-0.64,0-1.344-0.19-2.239-0.606c1.056,0.799,1.921,1.951,1.921,3.391c0,2.113-1.376,4.641-5.985,4.865
		c-0.223,0.031-0.447,0.031-0.704,0.031c-1.151,0.319-1.951,0.961-1.951,1.664c0,0.48,0.384,0.801,1.151,0.801h2.944
		c3.743,0,5.888,1.022,5.888,4.414c0,3.137-3.072,5.121-7.04,5.121C320.795,106.813,318.492,105.085,318.492,103.134 M327.77,89.821
		c0-2.559-0.928-3.711-2.942-3.711c-1.889,0-2.912,1.088-2.912,3.615c0,2.465,1.056,3.615,2.943,3.615
		C326.779,93.341,327.77,92.253,327.77,89.821"/>
	<path fill="#7E8A91" d="M117.94,130.214c1.159-0.094,1.596-0.455,1.805-1.48l1.729-8.874c0.037-0.209,0.075-0.437,0.075-0.626
		c0-0.627-0.303-0.854-1.291-0.893l0.095-0.551h8.682l-0.362,2.735h-0.569c-0.152-1.462-0.38-1.919-1.558-1.919h-3.21l-0.969,4.979
		h1.823c1.273,0,1.729-0.248,2.014-1.351h0.532l-0.684,3.497h-0.532c0.133-0.969-0.209-1.35-1.481-1.35h-1.825l-1.083,5.566h3.249
		c1.539,0,1.995-0.438,2.508-2.203h0.627l-0.589,3.02h-9.081L117.94,130.214z"/>
	<path fill="#7E8A91" d="M135.979,123.964c0.058-0.266,0.096-0.512,0.096-0.703c0-0.494-0.229-0.74-0.742-0.74
		c-1.234,0-2.64,1.841-3.4,3.115l-1.101,5.129h-1.483l1.406-6.648c0.057-0.285,0.095-0.531,0.095-0.76
		c0-0.684-0.361-0.949-1.405-0.969l0.133-0.494c0.493-0.248,1.139-0.438,1.747-0.438c0.627,0,1.007,0.494,1.007,1.463
		c0,0.229-0.039,0.779-0.133,1.197c1.064-1.482,2.375-2.83,3.894-2.83c1.102,0,1.539,0.74,1.539,1.689
		c0,0.209-0.038,0.514-0.094,0.779l-1.007,4.729c-0.058,0.249-0.115,0.571-0.115,0.78c0,0.494,0.248,0.703,0.913,0.703
		c0.171,0,0.398-0.02,0.588-0.039l0.039,0.494c-0.799,0.361-1.407,0.514-1.825,0.514c-0.892,0-1.234-0.514-1.234-1.35
		c0-0.266,0.057-0.685,0.133-1.063L135.979,123.964z"/>
	<path fill="#7E8A91" d="M145.86,130.993c-1.33,0-2.184-0.969-2.184-2.604c0-4.064,3.02-7.104,6.041-7.104
		c0.436,0,0.874,0.113,1.292,0.342l0.38-1.957c0.056-0.248,0.076-0.457,0.076-0.703c0-0.74-0.362-0.988-1.292-1.025l0.114-0.475
		l2.488-0.457h0.228c0.057,0.172,0.076,0.438,0.076,0.816c0,0.533-0.057,1.236-0.285,2.318l-1.785,8.339
		c-0.057,0.267-0.095,0.495-0.095,0.704c0,0.551,0.284,0.779,0.969,0.779c0.132,0,0.341-0.02,0.512-0.039l0.038,0.494
		c-0.797,0.361-1.31,0.514-1.824,0.514c-0.816,0-1.178-0.59-1.178-1.502c0-0.285,0-0.664,0.077-1.025
		C148.577,129.626,147.342,130.993,145.86,130.993 M150.743,122.673c-0.229-0.342-0.627-0.59-1.216-0.59
		c-2.318,0-4.256,2.735-4.256,6.174c0,1.178,0.513,1.615,1.16,1.615c1.31,0,2.659-1.785,3.438-3.115L150.743,122.673z"/>
	<path fill="#7E8A91" d="M157.471,130.062c1.063,0,1.937-0.436,2.811-1.234l0.399,0.531c-0.817,0.932-2.127,1.672-3.761,1.672
		c-2.014,0-3.078-1.311-3.078-3.609c0-2.906,2.128-6.117,5.224-6.117c1.654,0,2.66,0.818,2.66,2.299
		c0,1.787-1.957,3.021-5.737,3.021h-0.532c-0.038,0.286-0.038,0.628-0.038,0.95C155.419,129.169,156.179,130.062,157.471,130.062
		 M158.952,122.103c-1.634,0-2.888,1.709-3.362,3.762h0.683c3.022,0,3.933-0.988,3.933-2.375
		C160.206,122.71,159.731,122.103,158.952,122.103"/>
	<path fill="#7E8A91" d="M164.509,128.485c-0.057,0.285-0.113,0.59-0.113,0.799c0,0.492,0.247,0.684,0.93,0.684
		c0.171,0,0.456-0.02,0.665-0.039l0.039,0.493c-0.798,0.362-1.463,0.515-1.977,0.515c-0.874,0-1.216-0.475-1.216-1.388
		c0-0.304,0.037-0.646,0.113-1.024l1.901-8.834c0.056-0.269,0.075-0.494,0.075-0.723c0-0.723-0.36-0.988-1.291-1.025l0.113-0.475
		l2.528-0.457h0.227c0.057,0.172,0.095,0.457,0.095,0.836c0,0.533-0.095,1.293-0.304,2.299L164.509,128.485z"/>
	<path fill="#7E8A91" d="M179.329,122.464c0.342-0.551,0.608-0.799,0.817-0.988h0.741c-0.343,0.57-0.628,1.52-0.874,2.584
		l-1.008,4.426c-0.057,0.266-0.095,0.494-0.095,0.684c0,0.59,0.342,0.799,0.969,0.799c0.076,0,0.323-0.02,0.514-0.039l0.038,0.494
		c-0.646,0.342-1.197,0.513-1.747,0.513c-0.895,0-1.254-0.55-1.254-1.442c0-0.324,0.018-0.686,0.094-1.142
		c-0.798,1.255-2.128,2.642-3.552,2.642c-1.329,0-2.071-0.969-2.071-2.508c0-3.762,2.812-7.199,5.756-7.199
		C178.417,121.286,179.12,121.628,179.329,122.464 M173.497,128.372c0,1.062,0.476,1.5,1.103,1.5c1.102,0,2.507-1.785,3.286-3.115
		l0.911-3.857c-0.133-0.436-0.551-0.836-1.253-0.836C175.339,122.063,173.497,125.122,173.497,128.372"/>
	<path fill="#7E8A91" d="M183.289,131.315c-0.322,1.635-1.158,3.021-2.792,3.021c-0.38,0-0.722-0.095-1.045-0.265v-0.514
		c1.634-0.097,2.09-0.551,2.395-2.051l1.766-9.025h-1.197l0.096-0.512l1.255-0.418l0.303-1.539c0.38-1.938,1.786-3.002,3.495-3.002
		c0.665,0,1.273,0.133,1.691,0.305l-0.322,1.5H188c0-0.627-0.133-1.102-0.76-1.102c-0.761,0-1.33,0.361-1.596,1.709l-0.418,2.129
		h2.298l-0.418,0.93h-2.051L183.289,131.315z"/>
	<path fill="#7E8A91" d="M196.949,129.948c1.463,0,2.015-0.551,2.736-2.279h0.607l-0.874,3.096h-8.567l0.095-0.551
		c1.159-0.094,1.596-0.455,1.805-1.48l1.729-8.873c0.037-0.209,0.075-0.438,0.075-0.627c0-0.627-0.304-0.854-1.291-0.893
		l0.095-0.551h4.749l-0.095,0.551c-1.349,0.057-1.729,0.57-1.918,1.539l-1.958,10.068H196.949z"/>
	<path fill="#7E8A91" d="M208.528,117.79c2.754,0,3.628,1.178,3.628,2.813c0,1.879-1.159,3.096-3.097,3.324v0.076
		c1.501,0.209,2.584,1.291,2.584,2.62c0,1.274-0.361,2.337-1.349,3.173c-0.988,0.836-2.128,0.969-4.389,0.969h-4.863l0.096-0.551
		c1.158-0.094,1.595-0.455,1.804-1.48l1.729-8.873c0.037-0.209,0.075-0.418,0.075-0.627c0-0.627-0.304-0.854-1.291-0.893
		l0.096-0.551H208.528z M205.412,124.401l-1.083,5.547h2.071c1.063,0,1.9-0.133,2.45-0.59c0.608-0.531,1.007-1.387,1.007-2.715
		c0-1.406-0.569-2.242-2.64-2.242H205.412z M207.369,123.603c0.987,0,1.614-0.15,2.203-0.664c0.609-0.531,0.95-1.293,0.95-2.412
		c0-1.445-0.703-1.92-2.469-1.92h-1.521l-0.969,4.996H207.369z"/>
	<path fill="#7E8A91" d="M220.327,128.657c-0.038,0.227-0.076,0.492-0.076,0.607c0,0.627,0.398,0.893,1.426,0.949l-0.096,0.551
		h-4.788l0.097-0.551c1.157-0.094,1.595-0.455,1.804-1.48l1.729-8.873c0.038-0.189,0.076-0.455,0.076-0.627
		c0-0.627-0.304-0.854-1.292-0.893l0.096-0.551h8.587l-0.343,2.83h-0.57c-0.228-1.709-0.456-2.014-1.709-2.014h-3.002l-1.025,5.281
		h1.709c1.274,0,1.73-0.246,2.014-1.348h0.532l-0.703,3.553h-0.551c0.114-0.971-0.152-1.406-1.443-1.406h-1.71L220.327,128.657z"/>
	<path fill="#7E8A91" d="M230.603,131.03c-2.128,0-3.4-1.48-3.4-3.59c0-3.496,2.242-6.137,4.882-6.137
		c2.223,0,3.402,1.615,3.402,3.629C235.487,128.163,233.568,131.03,230.603,131.03 M232.009,122.103
		c-1.977,0-3.211,2.717-3.211,5.623c0,1.52,0.532,2.508,1.881,2.508c2.108,0,3.21-2.773,3.21-5.586
		C233.889,123.015,233.338,122.103,232.009,122.103"/>
	<path fill="#7E8A91" d="M242.631,121.286c0.134,0,0.268,0.018,0.399,0.057l-0.361,1.842c-0.151-0.057-0.266-0.076-0.475-0.076
		c-1.406,0-2.507,1.178-3.001,3.553l-0.874,4.104h-1.482l1.406-6.648c0.057-0.285,0.095-0.531,0.095-0.76
		c0-0.684-0.361-0.949-1.405-0.969l0.134-0.494c0.492-0.248,1.139-0.438,1.747-0.438c0.646,0,0.968,0.533,0.968,1.559
		c0,0.398-0.037,0.721-0.094,1.102C240.581,122.481,241.625,121.286,242.631,121.286"/>
	<path fill="#7E8A91" d="M242.925,130.233l0.322-1.805h0.97c0,1.424,0.455,1.842,1.823,1.842c1.178,0,2.223-0.494,2.223-1.767
		c0-0.931-0.551-1.272-1.481-1.671l-0.969-0.418c-0.911-0.457-1.768-1.217-1.768-2.395c0-1.785,1.539-2.734,3.458-2.734
		c1.33,0,2.147,0.379,2.565,0.664l-0.286,1.652h-0.931c-0.038-1.006-0.456-1.558-1.729-1.558c-1.083,0-1.748,0.571-1.748,1.54
		c0,0.627,0.229,1.044,1.178,1.443l0.969,0.418c1.33,0.57,2.109,1.291,2.109,2.564c0,1.766-1.463,3.02-3.743,3.02
		C244.141,131.03,243.343,130.538,242.925,130.233"/>
	<path fill="#7E8A91" d="M253.306,128.485c-0.057,0.285-0.114,0.57-0.114,0.779c0,0.494,0.247,0.703,0.912,0.703
		c0.171,0,0.398-0.02,0.607-0.039l0.039,0.494c-0.799,0.361-1.463,0.514-2.015,0.514c-0.76,0-1.14-0.494-1.14-1.35
		c0-0.303,0.057-0.664,0.153-1.063l1.063-4.408c0.076-0.285,0.114-0.607,0.114-0.74c0-0.686-0.438-0.969-1.482-0.988l0.135-0.494
		c0.492-0.229,1.253-0.438,1.784-0.438c0.722,0,1.159,0.361,1.159,1.292c0,0.286-0.058,0.665-0.152,1.083L253.306,128.485z
		 M254.313,119.728c-0.627,0-1.121-0.514-1.121-1.139c0-0.627,0.494-1.141,1.121-1.141s1.12,0.514,1.12,1.141
		C255.433,119.214,254.94,119.728,254.313,119.728"/>
	<path fill="#7E8A91" d="M257.693,130.765h-1.481l2.374-11.074c0.059-0.269,0.076-0.494,0.076-0.703
		c0-0.742-0.361-1.008-1.292-1.045l0.114-0.475l2.526-0.457h0.229c0.057,0.172,0.095,0.457,0.095,0.836
		c0,0.493-0.076,1.293-0.304,2.299L257.693,130.765z M259.25,125.692l4.027-4.141h1.729l-0.133,0.702
		c-0.987,0.058-1.823,0.704-2.944,1.786l-1.292,1.234l1.558,3.609c0.305,0.703,0.514,1.008,1.368,1.008
		c0.171,0,0.38-0.02,0.57-0.057l0.037,0.512c-0.607,0.361-1.216,0.532-1.671,0.532c-0.798,0-1.272-0.437-1.805-1.729L259.25,125.692
		z"/>
	<path fill="#7E8A91" d="M271.687,121.286c0.134,0,0.268,0.018,0.399,0.057l-0.361,1.842c-0.151-0.057-0.266-0.076-0.475-0.076
		c-1.406,0-2.508,1.178-3.001,3.553l-0.874,4.104h-1.482l1.406-6.648c0.057-0.285,0.095-0.531,0.095-0.76
		c0-0.684-0.361-0.949-1.405-0.969l0.134-0.494c0.492-0.248,1.139-0.438,1.747-0.438c0.646,0,0.968,0.533,0.968,1.559
		c0,0.398-0.037,0.721-0.095,1.102C269.636,122.481,270.68,121.286,271.687,121.286"/>
	<path fill="#7E8A91" d="M274.827,128.485c-0.057,0.285-0.114,0.57-0.114,0.779c0,0.494,0.247,0.703,0.912,0.703
		c0.171,0,0.398-0.02,0.607-0.039l0.039,0.494c-0.799,0.361-1.463,0.514-2.015,0.514c-0.76,0-1.14-0.494-1.14-1.35
		c0-0.303,0.057-0.664,0.153-1.063l1.063-4.408c0.076-0.285,0.114-0.607,0.114-0.74c0-0.686-0.438-0.969-1.482-0.988l0.134-0.494
		c0.493-0.229,1.254-0.438,1.785-0.438c0.722,0,1.159,0.361,1.159,1.292c0,0.286-0.058,0.665-0.151,1.083L274.827,128.485z
		 M275.833,119.728c-0.627,0-1.121-0.514-1.121-1.139c0-0.627,0.494-1.141,1.121-1.141s1.12,0.514,1.12,1.141
		C276.954,119.214,276.46,119.728,275.833,119.728"/>
	<path fill="#7E8A91" d="M284.436,123.964c0.058-0.266,0.095-0.512,0.095-0.703c0-0.494-0.228-0.74-0.74-0.74
		c-1.235,0-2.642,1.841-3.401,3.115l-1.101,5.129h-1.482l1.405-6.648c0.058-0.285,0.096-0.531,0.096-0.76
		c0-0.684-0.361-0.949-1.406-0.969l0.134-0.494c0.493-0.248,1.139-0.438,1.747-0.438c0.628,0,1.008,0.494,1.008,1.463
		c0,0.229-0.039,0.779-0.134,1.197c1.063-1.482,2.374-2.83,3.895-2.83c1.102,0,1.538,0.74,1.538,1.689
		c0,0.209-0.038,0.514-0.094,0.779l-1.008,4.729c-0.057,0.249-0.113,0.571-0.113,0.78c0,0.494,0.247,0.703,0.912,0.703
		c0.171,0,0.398-0.02,0.588-0.039l0.039,0.494c-0.799,0.361-1.407,0.514-1.824,0.514c-0.894,0-1.235-0.514-1.235-1.35
		c0-0.266,0.058-0.685,0.133-1.063L284.436,123.964z"/>
	<path fill="#7E8A91" d="M296.441,121.323l0.36,1.121c-0.418,0.172-0.685,0.229-1.103,0.229c-0.398,0-0.893-0.057-1.386-0.324
		c0.418,0.457,0.778,1.217,0.778,1.957c0,1.197-1.103,2.945-3.971,2.945c-0.133,0-0.228,0-0.38-0.02
		c-0.817,0.152-1.558,0.684-1.558,1.178c0,0.285,0.134,0.514,0.74,0.531l1.56,0.039c2.165,0.057,3.152,0.779,3.152,2.279
		c0,2.129-1.898,3.268-4.54,3.268c-2.717,0-3.705-0.836-3.705-1.9c0-0.797,0.646-1.254,1.179-1.5l0.55-0.037
		c-0.171,0.266-0.36,0.76-0.36,1.348c0,0.836,0.627,1.367,2.374,1.367c2.204,0,3.135-0.797,3.135-2.07
		c0-0.816-0.627-1.195-1.993-1.291l-1.806-0.113c-1.141-0.076-1.652-0.361-1.652-1.254c0-1.027,0.93-1.844,2.146-2.072
		c-1.082-0.303-1.747-1.348-1.747-2.412c0-1.975,1.69-3.287,3.647-3.287c1.349,0,2.07,0.438,3.134,0.438
		C295.547,121.741,295.985,121.589,296.441,121.323 M293.59,123.661c0-1.008-0.551-1.598-1.729-1.598
		c-1.103,0-2.166,0.951-2.166,2.793c0,1.045,0.589,1.635,1.71,1.635C292.907,126.491,293.59,125.104,293.59,123.661"/>
</g>
</svg>
